Coordinates
version=1
nRows=9
nColumns=24
inDegrees=yes

Units are S.I. units (second, meters, Newtons, ...)
Angles are in degrees.

endheader
time	pelvis_tilt	pelvis_list	pelvis_rotation	pelvis_tx	pelvis_ty	pelvis_tz	hip_flexion_r	hip_adduction_r	hip_rotation_r	knee_angle_r	ankle_angle_r	subtalar_angle_r	mtp_angle_r	hip_flexion_l	hip_adduction_l	hip_rotation_l	knee_angle_l	ankle_angle_l	subtalar_angle_l	mtp_angle_l	lumbar_extension	lumbar_bending	lumbar_rotation
      4.46000000	     12.47462284	      1.61901620	      2.44327386	      0.52621006	      0.75702268	     -0.16210963	    -12.24703165	      4.73645099	     18.90706267	     -1.35540086	     12.31176240	    -13.48943523	      0.00000000	      8.21750747	     -0.53046278	     -4.64614548	    -67.51312075	     -8.05884302	    -19.06902895	      0.00000000	    -21.15042644	     -2.98083999	     -4.48693766
      4.47000000	     12.28007040	      1.82656870	      1.39134831	      0.53866087	      0.75739503	     -0.16165322	    -13.28179160	      4.17156252	     19.39257908	     -0.93536194	     13.11721773	    -12.59360345	      0.00000000	      9.85702873	     -0.20250066	     -5.41899293	    -66.92631611	     -6.05908998	    -21.20588051	      0.00000000	    -20.79453821	     -3.41474083	     -3.46416691
      4.48000000	     12.11832792	      1.99051784	      0.32489448	      0.55098615	      0.75751634	     -0.16118417	    -14.33521179	      3.62307114	     20.08343191	     -0.49713590	     13.78744627	    -12.08050920	      0.00000000	     11.34170241	     -0.00431412	     -6.22342265	    -65.97419310	     -4.19924721	    -22.97957819	      0.00000000	    -20.52133362	     -3.78474998	     -2.47918688
      4.49000000	     12.03927391	      2.18485549	     -0.68572226	      0.56321158	      0.75750091	     -0.16084697	    -15.49118883	      3.01328034	     20.65140815	      0.01174910	     14.38138505	    -11.54703417	      0.00000000	     12.56785374	      0.27209529	     -6.86147988	    -64.55451269	     -3.06720898	    -25.18031115	      0.00000000	    -20.38547023	     -4.14982924	     -1.63077971
      4.50000000	     11.98861366	      2.30549986	     -1.64952308	      0.57535792	      0.75722883	     -0.16055439	    -16.67070121	      2.46576420	     21.22468710	      0.53571701	     14.90910835	    -11.15974314	      0.00000000	     13.61690147	      0.43108508	     -7.43670868	    -62.75676703	     -2.04737099	    -27.04138408	      0.00000000	    -20.31951960	     -4.41731205	     -0.87589230
      4.51000000	     11.98603790	      2.37613870	     -2.55292976	      0.58747891	      0.75675169	     -0.16034089	    -17.92144654	      1.94982334	     21.77925845	      1.10642764	     15.36751927	    -10.90261575	      0.00000000	     14.43529888	      0.54591802	     -7.89636067	    -60.54022736	     -1.28134796	    -28.74617113	      0.00000000	    -20.33272714	     -4.61506728	     -0.21648519
      4.52000000	     12.02281381	      2.39842821	     -3.39114089	      0.59961788	      0.75607612	     -0.16021845	    -19.23285899	      1.46806506	     22.28845608	      1.70700927	     15.77462687	    -10.74490086	      0.00000000	     15.01831532	      0.63112775	     -8.23996455	    -57.90021461	     -0.75321025	    -30.25931383	      0.00000000	    -20.40306480	     -4.74611475	      0.37134930
      4.53000000	     12.05672672	      2.37288994	     -4.18624139	      0.61180149	      0.75516822	     -0.16014547	    -20.54268107	      1.02626918	     22.77288915	      2.29765332	     16.15043385	    -10.66726016	      0.00000000	     15.40648627	      0.67402274	     -8.51383925	    -54.84526991	     -0.44949132	    -31.63225431	      0.00000000	    -20.47340955	     -4.82533363	      0.89116173
      4.54000000	     12.06767781	      2.30639071	     -4.93073394	      0.62406905	      0.75403476	     -0.16013519	    -21.81997792	      0.62976891	     23.21542382	      2.84998443	     16.50789245	    -10.66421914	      0.00000000	     15.60893080	      0.69310174	     -8.70936679	    -51.36689342	     -0.37217209	    -32.82001828	      0.00000000	    -20.50579310	     -4.85313006	      1.36466536
